<svg xmlns="http://www.w3.org/2000/svg" xmlns:xlink="http://www.w3.org/1999/xlink" fill="none" version="1.1" width="29.81366539001465" height="24" viewBox="0 0 29.81366539001465 24"><g transform="matrix(1,0,0,-1,0,48)"><path d="M9.68944,31.5Q13.7888,31.59375,16.5373,33.9375Q19.2857,36.2344,19.3789,39.75Q19.2857,43.2656,16.5373,45.5625Q13.7888,47.9062,9.68944,48Q5.59006,47.9062,2.84162,45.5625Q0.0931677,43.2656,0,39.75Q0.0465839,36.9844,1.86335,34.9219Q1.58385,34.2188,1.1646,33.75Q0.838509,33.32812,0.559006,33.09375Q0.419255,32.95312,0.372671,32.90625Q0.326087,32.85938,0.326087,32.85938L0.279503,32.85938Q-0.0931677,32.53125,0.0465839,32.01562Q0.232919,31.54688,0.745342,31.5Q2.32919,31.54688,3.63354,32.0625Q4.28571,32.34375,4.79814,32.625Q6.98758,31.54688,9.68944,31.5ZM20.8696,39.75Q20.7298,35.7188,17.8882,33.09375Q15,30.46875,10.8075,30.04688Q11.6925,27.375,14.2081,25.73438Q16.7236,24.046875,20.1242,24Q22.8261,24.046875,25.0155,25.125Q25.528,24.84375,26.1801,24.5625Q27.4845,24.046875,29.0683,24Q29.5807,24.046875,29.7671,24.515625Q29.9068,25.03125,29.4876,25.35938L29.4876,25.40625Q29.441,25.40625,29.441,25.40625Q29.3944,25.45312,29.2547,25.59375Q28.9752,25.82812,28.6491,26.25Q28.2298,26.76562,27.9503,27.42188Q29.7671,29.48438,29.8137,32.25Q29.7205,35.5781,27.205,37.875Q24.6894,40.1719,20.823,40.5Q20.8696,40.125,20.8696,39.75Z" fill="#000000" fill-opacity="1" style="mix-blend-mode:passthrough"/></g></svg>