<svg xmlns="http://www.w3.org/2000/svg" xmlns:xlink="http://www.w3.org/1999/xlink" fill="none" version="1.1" width="29.912385940551758" height="21.01171875" viewBox="0 0 29.912385940551758 21.01171875"><g transform="matrix(1,0,0,-1,0,42.0234375)"><path d="M14.9591,42.023418750000005Q14.3984,42.023418750000005,13.8376,41.835918750000005L0.753505,37.10151875Q0.0525701,36.77341875,0.00584112,36.02341875Q0.0525701,35.27341875,0.753505,34.94531875L3.46379,33.96091875Q2.29556,32.13281875,2.24883,29.83593875L2.24883,28.52343875Q2.10864,26.46093875,1.22079,24.72655875Q0.753505,23.83593875,0.146028,22.99218875Q-0.0876168,22.66405875,0.0525701,22.28905875Q0.192757,21.91406275,0.566589,21.77343775L3.55724,21.02343755Q3.88435,20.97656255,4.16472,21.11718775Q4.39837,21.30468775,4.49182,21.63281275Q4.95911,24.72655875,4.39837,26.69530875Q4.16472,27.72655875,3.74416,28.66405875L3.74416,29.83593875Q3.79089,31.99221875,5.05257,33.67971875Q5.94042,34.75781875,7.34229,35.32031875L14.6787,38.22651875Q15.3329,38.41401875,15.66,37.80471875Q15.847,37.148418750000005,15.2395,36.82031875L7.90304,33.96091875Q7.01519,33.58591875,6.40771,32.92971875L13.8376,30.21093875Q14.3984,30.02343875,14.9591,30.02343875Q15.5199,30.02343875,16.0806,30.21093875L29.1647,34.94531875Q29.8657,35.27341875,29.9124,36.02341875Q29.8657,36.77341875,29.1647,37.10151875L16.0806,41.835918750000005Q15.5199,42.023418750000005,14.9591,42.023418750000005ZM5.98715,24.39843875Q6.08061,23.08593875,8.60397,22.10155875Q11.1273,21.07031245,14.9591,21.02343755Q18.7909,21.07031245,21.3143,22.10155875Q23.8376,23.08593875,23.9311,24.39843875L23.2301,31.19531875L16.5946,28.80468875Q15.8002,28.52343875,14.9591,28.52343875Q14.118,28.52343875,13.3703,28.80468875L6.68808,31.19531875L5.98715,24.39843875Z" fill="#000000" fill-opacity="1" style="mix-blend-mode:passthrough"/></g></svg>