<svg xmlns="http://www.w3.org/2000/svg" xmlns:xlink="http://www.w3.org/1999/xlink" fill="none" version="1.1" width="26.922143936157227" height="24" viewBox="0 0 26.922143936157227 24"><g transform="matrix(1,0,0,-1,0,48)"><path d="M14.5744,46.875L14.5744,46.3594L14.5744,46.875L14.5744,46.3594Q15.0415,46.3125,15.4152,46.1719Q16.3962,45.8438,16.2093,44.8125Q15.8824,43.8281,14.8547,44.0156Q14.0606,44.25,13.4533,44.25Q12.8927,44.25,12.519,44.0156Q12.3789,43.9219,12.3789,43.875Q12.3322,43.875,12.3322,43.7812Q12.3322,43.7344,12.3322,43.7344Q12.3322,43.6875,12.4723,43.5938Q12.8927,43.4063,13.7803,43.125L13.827,43.125Q14.6678,42.9375,15.5554,42.4219Q16.6765,41.8125,16.8166,40.3125Q16.7232,38.7188,15.5554,38.0156Q15.0882,37.7344,14.5744,37.6406L14.5744,37.125Q14.481,36.0938,13.4533,36Q12.4256,36.0938,12.3322,37.125L12.3322,37.6406Q11.6782,37.8281,11.2111,38.0156Q11.1644,38.0156,11.1176,38.0156Q11.0709,38.0625,11.0242,38.0625Q10.9308,38.1094,10.8374,38.1094Q9.90311,38.5312,10.1367,39.5625Q10.5571,40.5,11.5381,40.2656Q11.6315,40.2188,11.7249,40.2188Q11.8183,40.1719,11.9118,40.125Q12.7993,39.7969,13.5,39.75Q14.0606,39.75,14.3875,39.9375Q14.5277,40.0312,14.5277,40.0781Q14.5744,40.125,14.5744,40.2656Q14.6211,40.3125,14.3875,40.5Q14.0138,40.7344,13.1263,40.9688L13.0329,41.0156Q12.192,41.2031,11.3045,41.6719Q10.2301,42.2344,10.09,43.7344Q10.2301,45.375,11.3979,45.9844Q11.8183,46.2188,12.3322,46.3594L12.3322,46.875Q12.4256,47.9062,13.4533,48Q14.481,47.9062,14.5744,46.875ZM26.5329,32.25Q27,31.59375,26.9066,30.84375Q26.7664,30.09375,26.1592,29.625L20.2266,25.21875Q18.545,24,16.4429,24L8.96886,24L1.49481,24Q0.84083,24,0.420415,24.421875Q0,24.84375,0,25.5L0,28.5Q0,29.15625,0.420415,29.57812Q0.84083,30,1.49481,30L3.22318,30L5.32526,31.6875Q6.96021,33,9.06228,33L12.7059,33L16.4429,33Q17.0969,33,17.5173,32.57812Q17.9377,32.15625,17.9377,31.5Q17.9377,30.84375,17.5173,30.42188Q17.0969,30,16.4429,30L13.4533,30L12.7059,30Q12.0052,29.95312,11.9585,29.25Q12.0052,28.54688,12.7059,28.5L18.3581,28.5L23.917,32.625Q24.5709,33.09375,25.3183,33Q26.0657,32.85938,26.5329,32.25ZM9.06228,30L9.01557,30L9.06228,30Z" fill="#000000" fill-opacity="1" style="mix-blend-mode:passthrough"/></g></svg>