<svg xmlns="http://www.w3.org/2000/svg" xmlns:xlink="http://www.w3.org/1999/xlink" fill="none" version="1.1" width="30" height="18.00312614440918" viewBox="0 0 30 18.00312614440918"><g transform="matrix(1,0,0,-1,0,36.00625228881836)"><path d="M15.1406,35.02192614440918L10.6406,31.31872614440918L15.1406,35.02192614440918L10.6406,31.31872614440918Q10.0312,30.850026144409178,9.9375,30.14692614440918Q9.89062,29.44372614440918,10.3125,28.83442614440918Q10.7812,28.225026144409178,11.5312,28.13122614440918Q12.2344,27.99062614440918,12.8906,28.45942614440918L17.5312,32.11562614440918Q18.1406,32.49062614440918,18.6094,31.975026144409178Q18.9844,31.412526144409178,18.4688,30.89692614440918L17.4844,30.14692614440918L24,24.14687614440918L24,33.00622614440918L23.9531,33.00622614440918L23.7656,33.10002614440918L20.3906,35.30312614440918Q19.2656,36.00622614440918,17.9531,36.00622614440918Q16.4062,36.00622614440918,15.1406,35.02192614440918ZM16.2188,29.162526144409178L13.7812,27.28750614440918L16.2188,29.162526144409178L13.7812,27.28750614440918Q12.6562,26.44375614440918,11.2969,26.63125614440918Q9.98438,26.81875614440918,9.09375,27.94375614440918Q8.29688,29.06872614440918,8.48438,30.33442614440918Q8.625,31.600026144409178,9.65625,32.49062614440918L13.5938,35.63122614440918Q12.75,36.00622614440918,11.8594,36.00622614440918Q10.5,36.00622614440918,9.375,35.25622614440918L6,33.00622614440918L6,22.50625614440918L7.3125,22.50625614440918L11.625,18.61562614440918Q12.3281,17.95937614440918,13.2188,18.00625114440918Q14.1094,18.05312614440918,14.7656,18.75625114440918Q15.1875,19.17812614440918,15.3281,19.69374614440918L16.125,18.99062614440918Q16.8281,18.33437614440918,17.7188,18.38125114440918Q18.6094,18.42812614440918,19.2656,19.13124614440918Q19.5938,19.45937614440918,19.7344,19.88124614440918Q20.4375,19.41249614440918,21.2344,19.50624614440918Q22.0781,19.59999614440918,22.6406,20.25624614440918Q23.2969,20.95937614440918,23.25,21.84999614440918Q23.2031,22.74062614440918,22.5,23.39687614440918L16.2188,29.162526144409178ZM0.75,33.00622614440918Q0.046875,32.95942614440918,0,32.25622614440918L0,22.50625614440918Q0,21.84999614440918,0.421875,21.42812614440918Q0.84375,21.00624614440918,1.5,21.00624614440918L3,21.00624614440918Q3.65625,21.00624614440918,4.07812,21.42812614440918Q4.5,21.84999614440918,4.5,22.50625614440918L4.5,33.00622614440918L0.75,33.00622614440918ZM2.25,24.00625614440918Q2.95312,23.95937614440918,3,23.25625614440918Q2.95312,22.55312614440918,2.25,22.50625614440918Q1.54688,22.55312614440918,1.5,23.25625614440918Q1.54688,23.95937614440918,2.25,24.00625614440918ZM25.5,33.00622614440918L25.5,22.50625614440918L25.5,33.00622614440918L25.5,22.50625614440918Q25.5,21.84999614440918,25.9219,21.42812614440918Q26.3438,21.00624614440918,27,21.00624614440918L28.5,21.00624614440918Q29.1562,21.00624614440918,29.5781,21.42812614440918Q30,21.84999614440918,30,22.50625614440918L30,32.25622614440918Q29.9531,32.95942614440918,29.25,33.00622614440918L25.5,33.00622614440918ZM27,23.25625614440918Q27.0469,23.95937614440918,27.75,24.00625614440918Q28.4531,23.95937614440918,28.5,23.25625614440918Q28.4531,22.55312614440918,27.75,22.50625614440918Q27.0469,22.55312614440918,27,23.25625614440918Z" fill="#000000" fill-opacity="1" style="mix-blend-mode:passthrough"/></g></svg>