<svg xmlns="http://www.w3.org/2000/svg" xmlns:xlink="http://www.w3.org/1999/xlink" fill="none" version="1.1" width="30" height="24" viewBox="0 0 30 24"><g transform="matrix(1,0,0,-1,0,48)"><path d="M4.5,42Q4.5,43.6406,5.29688,45Q6.09375,46.3594,7.5,47.2031Q8.90625,48,10.5,48Q12.0938,48,13.5,47.2031Q14.9062,46.3594,15.7031,45Q16.5,43.6406,16.5,42Q16.5,40.3594,15.7031,39Q14.9062,37.6406,13.5,36.7969Q12.0938,36,10.5,36Q8.90625,36,7.5,36.7969Q6.09375,37.6406,5.29688,39Q4.5,40.3594,4.5,42ZM0,25.40625Q0.09375,28.92188,2.4375,31.3125Q4.82812,33.65625,8.34375,33.75L12.6562,33.75Q16.1719,33.65625,18.5625,31.3125Q20.9062,28.92188,21,25.40625Q21,24.796875,20.5781,24.421875Q20.2031,24,19.5938,24L1.40625,24Q0.796875,24,0.421875,24.421875Q0,24.796875,0,25.40625ZM28.5469,24L22.125,24L28.5469,24L22.125,24Q22.5,24.65625,22.5,25.5L22.5,25.875Q22.5,28.03125,21.6094,29.85938Q20.7656,31.6875,19.2188,33L19.2656,33Q19.4062,33,19.5469,33L22.4531,33Q25.6406,32.90625,27.7969,30.79688Q29.9062,28.64062,30,25.45312Q30,24.84375,29.5781,24.421875Q29.1562,24,28.5469,24ZM20.25,36Q18,36.0469,16.5469,37.5469Q17.9531,39.4688,18,42Q18,43.9219,17.1562,45.4688Q18.4688,46.4531,20.25,46.5Q22.5,46.4531,23.9531,44.9531Q25.4531,43.5,25.5,41.25Q25.4531,39,23.9531,37.5469Q22.5,36.0469,20.25,36Z" fill="#000000" fill-opacity="1" style="mix-blend-mode:passthrough"/></g></svg>