<svg xmlns="http://www.w3.org/2000/svg" xmlns:xlink="http://www.w3.org/1999/xlink" fill="none" version="1.1" width="24.758853912353516" height="24.002342224121094" viewBox="0 0 24.758853912353516 24.002342224121094"><g transform="matrix(1,0,0,-1,0,48.00468444824219)"><path d="M13.725,47.160942224121094Q13.3031,47.957842224121094,12.3656,48.0046422241211Q11.475,47.957842224121094,11.0063,47.160942224121094L8.00625,40.973442224121094L1.25625,39.94214222412109Q0.365625,39.80154222412109,0.084375,38.957842224121094Q-0.196875,38.06714222412109,0.459375,37.410942224121094L5.33438,32.58281222412109L4.1625,25.739062224121092Q4.06875,24.848436224121095,4.77188,24.285936224121095Q5.52188,23.770311224121095,6.36563,24.192186224121095L12.3656,27.379682224121094L18.4125,24.192186224121095Q19.2094,23.770311224121095,19.9594,24.285936224121095Q20.7094,24.848436224121095,20.5687,25.739062224121092L19.4437,32.58281222412109L24.3187,37.410942224121094Q24.9281,38.06714222412109,24.6937,38.957842224121094Q24.3656,39.80154222412109,23.475,39.94214222412109L16.725,40.973442224121094L13.725,47.160942224121094Z" fill="#000000" fill-opacity="1" style="mix-blend-mode:passthrough"/></g></svg>