<svg xmlns="http://www.w3.org/2000/svg" xmlns:xlink="http://www.w3.org/1999/xlink" fill="none" version="1.1" width="27" height="18" viewBox="0 0 27 18"><g transform="matrix(1,0,0,-1,0,36)"><path d="M0,33Q0.046875,34.2656,0.890625,35.1094Q1.73438,35.9531,3,36L15,36Q16.2656,35.9531,17.1094,35.1094Q17.9531,34.2656,18,33L18,21Q17.9531,19.73438,17.1094,18.890625Q16.2656,18.046875,15,18L3,18Q1.73438,18.046875,0.890625,18.890625Q0.046875,19.73438,0,21L0,33ZM26.2031,34.3125Q26.9531,33.8906,27,33L27,21Q26.9531,20.10938,26.2031,19.6875Q25.4062,19.26562,24.6562,19.73438L20.1562,22.73438L19.5,23.20312L19.5,24L19.5,30L19.5,30.7969L20.1562,31.2656L24.6562,34.2656Q25.4062,34.6875,26.2031,34.3125Z" fill="#000000" fill-opacity="1" style="mix-blend-mode:passthrough"/></g></svg>